<svg width="21" height="23" viewBox="0 0 21 23" fill="none" xmlns="http://www.w3.org/2000/svg">
<path d="M3.49943 3.85205H17.5004C18.0308 3.85205 18.5394 4.06273 18.9144 4.43774C19.2894 4.81275 19.5001 5.32138 19.5001 5.85172V19.8527C19.5001 20.383 19.2894 20.8917 18.9144 21.2667C18.5394 21.6417 18.0308 21.8524 17.5004 21.8524H3.49943C2.96908 21.8524 2.46046 21.6417 2.08545 21.2667C1.71044 20.8917 1.49976 20.383 1.49976 19.8527V5.85172C1.49976 5.32138 1.71044 4.81275 2.08545 4.43774C2.46046 4.06273 2.96908 3.85205 3.49943 3.85205Z" stroke="#435169" stroke-width="2" stroke-linecap="round" stroke-linejoin="round"/>
<path d="M14.4998 1.85254V5.85297" stroke="#435169" stroke-width="2" stroke-linecap="round" stroke-linejoin="round"/>
<path d="M6.50009 1.85254V5.85297" stroke="#435169" stroke-width="2" stroke-linecap="round" stroke-linejoin="round"/>
<path d="M1.49976 9.85205H19.5001" stroke="#435169" stroke-width="2" stroke-linecap="round" stroke-linejoin="round"/>
</svg>
