<?xml version="1.0" encoding="UTF-8"?>
<svg id="Layer_2" data-name="Layer 2" xmlns="http://www.w3.org/2000/svg" viewBox="0 0 21.5 12.5">
  <defs>
    <style>
      .cls-1 {
        stroke-width: 0px;
      }
    </style>
  </defs>
  <g id="Layer_1-2" data-name="Layer 1">
    <path class="cls-1" d="m15.25,12.5h-1.51c-.41,0-.75-.34-.75-.75s.34-.75.75-.75h1.51c2.62,0,4.75-2.13,4.75-4.75s-2.13-4.75-4.75-4.75h-1.5c-.41,0-.75-.34-.75-.75s.33-.75.75-.75h1.5c3.45,0,6.25,2.8,6.25,6.25s-2.8,6.25-6.25,6.25Zm-7.5,0h-1.5c-3.45,0-6.25-2.8-6.25-6.25S2.8,0,6.25,0h1.5c.41,0,.75.34.75.75s-.34.75-.75.75h-1.5C3.63,1.5,1.5,3.63,1.5,6.25s2.13,4.75,4.75,4.75h1.5c.41,0,.75.34.75.75s-.34.75-.75.75Zm7-5.5H6.75c-.41,0-.75-.34-.75-.75s.34-.75.75-.75h8c.41,0,.75.34.75.75s-.34.75-.75.75Z"/>
  </g>
</svg>