<svg width="24" height="25" viewBox="0 0 24 25" fill="none" xmlns="http://www.w3.org/2000/svg">
<path d="M12 0.931152C5.58411 0.931152 0.382935 6.30379 0.382935 12.9312C0.382935 18.5587 4.13384 23.2809 9.19375 24.5779V16.5984H6.79832V12.9312H9.19375V11.351C9.19375 7.26667 10.9832 5.37355 14.8652 5.37355C15.6012 5.37355 16.8712 5.52283 17.3907 5.67163V8.99563C17.1166 8.96587 16.6403 8.95099 16.0487 8.95099C14.144 8.95099 13.4079 9.69643 13.4079 11.6342V12.9312H17.2025L16.5506 16.5984H13.4079V24.8433C19.1602 24.1257 23.6174 19.0665 23.6174 12.9312C23.617 6.30379 18.4158 0.931152 12 0.931152Z" fill="#6E7C91"/>
</svg>
