<?xml version="1.0" encoding="UTF-8"?>
<svg id="Layer_2" data-name="Layer 2" xmlns="http://www.w3.org/2000/svg" viewBox="0 0 14.82 21.5">
  <defs>
    <style>
      .cls-1 {
        stroke-width: 0px;
      }
    </style>
  </defs>
  <g id="Layer_1-2" data-name="Layer 1">
    <path class="cls-1" d="m13.08,7.42c1.05-.74,1.74-1.96,1.74-3.34,0-2.25-1.83-4.08-4.08-4.08h-4.08s-2.58.01-2.58.01C1.83.01,0,1.84,0,4.09c0,1.38.69,2.59,1.74,3.33-1.05.74-1.74,1.95-1.74,3.33s.69,2.6,1.74,3.33c-1.05.74-1.74,1.96-1.74,3.34,0,2.25,1.83,4.08,4.08,4.08s4.08-1.83,4.08-4.08v-3.54c.71.58,1.6.95,2.58.95,2.25,0,4.08-1.83,4.08-4.08,0-1.38-.69-2.59-1.74-3.33Zm.24-3.33c0,1.42-1.16,2.58-2.58,2.58h-2.58V1.51h2.58c1.42,0,2.58,1.16,2.58,2.58ZM4.08,1.5h0s2.58-.01,2.58-.01v5.17h-2.58c-1.42,0-2.58-1.16-2.58-2.58s1.16-2.58,2.58-2.58Zm0,6.67h0s2.58,0,2.58,0h0v2.58s0,0,0,0,0,0,0,0v2.58h-2.58c-1.42,0-2.58-1.16-2.58-2.58s1.16-2.58,2.58-2.58Zm2.58,9.24c0,1.42-1.16,2.58-2.58,2.58s-2.58-1.16-2.58-2.58,1.16-2.58,2.58-2.58h2.58v2.58Zm4.08-4.08c-1.42,0-2.58-1.16-2.58-2.58h0c0-1.42,1.16-2.58,2.58-2.58s2.58,1.16,2.58,2.58-1.16,2.58-2.58,2.58Z"/>
  </g>
</svg>