<?xml version="1.0" encoding="UTF-8"?>
<svg id="Layer_2" data-name="Layer 2" xmlns="http://www.w3.org/2000/svg" viewBox="0 0 21.51 21.51">
  <defs>
    <style>
      .cls-1 {
        stroke-width: 0px;
      }
    </style>
  </defs>
  <g id="Layer_1-2" data-name="Layer 1">
    <path class="cls-1" d="m20.5,9.14l-4.49-2.25s0,0-.01-.01L2.63.19C2.06-.1,1.4-.06.86.27c-.54.34-.86.92-.86,1.55v17.86c0,.64.32,1.22.86,1.55.29.19.63.28.96.28.27,0,.55-.06.79-.2l.52-.26s.06,0,.09-.02l12.64-6.33c.07-.02.13-.05.19-.09l4.45-2.23c.62-.3,1.01-.92,1.01-1.62s-.39-1.32-1.01-1.62Zm-8.05.58L6.6,3.87l7.8,3.9-1.95,1.95ZM1.65,19.96c-.06-.03-.15-.11-.15-.27V1.83c0-.15.09-.24.15-.27.04-.02.1-.05.17-.05.04,0,.09.01.14.04l.4.2,9.03,9.03L2.43,19.74l-.46.23c-.15.07-.26.03-.32-.01Zm5.03-2.35l5.77-5.77,1.92,1.92-7.69,3.85Zm13.14-6.58h-.01l-4.03,2.02-2.27-2.27,2.3-2.3,4.01,2.01c.15.07.17.2.17.27s-.02.2-.17.27Z"/>
  </g>
</svg>