<svg width="24" height="24" viewBox="0 0 24 24" fill="none" xmlns="http://www.w3.org/2000/svg">
<path d="M21.625 0.118652H2.375C1.79484 0.118652 1.23844 0.34912 0.828204 0.759356C0.417968 1.16959 0.1875 1.72599 0.1875 2.30615V21.5562C0.1875 22.1363 0.417968 22.6927 0.828204 23.1029C1.23844 23.5132 1.79484 23.7437 2.375 23.7437H21.625C22.2052 23.7437 22.7616 23.5132 23.1718 23.1029C23.582 22.6927 23.8125 22.1363 23.8125 21.5562V2.30615C23.8125 1.72599 23.582 1.16959 23.1718 0.759356C22.7616 0.34912 22.2052 0.118652 21.625 0.118652ZM21.1875 21.1187H2.8125V2.74365H21.1875V21.1187ZM10.25 17.1812V11.0562C10.2503 10.7834 10.3355 10.5175 10.4938 10.2954C10.6522 10.0733 10.8758 9.90608 11.1336 9.81694C11.3914 9.72781 11.6705 9.7212 11.9322 9.79804C12.1939 9.87487 12.4252 10.0313 12.5939 10.2457C13.2606 9.89625 14.0061 9.72472 14.7584 9.74767C15.5107 9.77062 16.2444 9.98728 16.8885 10.3767C17.5326 10.7661 18.0654 11.3151 18.4353 11.9706C18.8051 12.6261 18.9997 13.366 19 14.1187V17.1812C19 17.5292 18.8617 17.8631 18.6156 18.1092C18.3694 18.3554 18.0356 18.4937 17.6875 18.4937C17.3394 18.4937 17.0056 18.3554 16.7594 18.1092C16.5133 17.8631 16.375 17.5292 16.375 17.1812V14.1187C16.375 13.6545 16.1906 13.2094 15.8624 12.8812C15.5342 12.553 15.0891 12.3687 14.625 12.3687C14.1609 12.3687 13.7158 12.553 13.3876 12.8812C13.0594 13.2094 12.875 13.6545 12.875 14.1187V17.1812C12.875 17.5292 12.7367 17.8631 12.4906 18.1092C12.2444 18.3554 11.9106 18.4937 11.5625 18.4937C11.2144 18.4937 10.8806 18.3554 10.6344 18.1092C10.3883 17.8631 10.25 17.5292 10.25 17.1812ZM8.5 11.0562V17.1812C8.5 17.5292 8.36172 17.8631 8.11558 18.1092C7.86944 18.3554 7.5356 18.4937 7.1875 18.4937C6.8394 18.4937 6.50556 18.3554 6.25942 18.1092C6.01328 17.8631 5.875 17.5292 5.875 17.1812V11.0562C5.875 10.7081 6.01328 10.3742 6.25942 10.1281C6.50556 9.88193 6.8394 9.74365 7.1875 9.74365C7.5356 9.74365 7.86944 9.88193 8.11558 10.1281C8.36172 10.3742 8.5 10.7081 8.5 11.0562ZM5.4375 6.68115C5.4375 6.33503 5.54014 5.99669 5.73243 5.7089C5.92472 5.42112 6.19803 5.19682 6.5178 5.06436C6.83757 4.93191 7.18944 4.89725 7.52891 4.96478C7.86837 5.0323 8.18019 5.19897 8.42494 5.44372C8.66968 5.68846 8.83635 6.00028 8.90387 6.33974C8.9714 6.67921 8.93674 7.03108 8.80429 7.35085C8.67184 7.67062 8.44753 7.94393 8.15975 8.13622C7.87196 8.32852 7.53362 8.43115 7.1875 8.43115C6.72337 8.43115 6.27825 8.24678 5.95006 7.91859C5.62187 7.5904 5.4375 7.14528 5.4375 6.68115Z" fill="#6E7C91"/>
</svg>
