<?xml version="1.0" encoding="UTF-8"?>
<svg id="Layer_2" data-name="Layer 2" xmlns="http://www.w3.org/2000/svg" viewBox="0 0 20 36.25">
  <g id="Layer_1-2" data-name="Layer 1">
    <path class="cls-1" d="m16.25,0H3.75c-.99,0-1.95.4-2.65,1.1C.4,1.8,0,2.76,0,3.75h20c0-.99-.4-1.95-1.1-2.65-.7-.7-1.66-1.1-2.65-1.1Zm-4.38,2.5h-3.75c-.17,0-.32-.07-.44-.18-.12-.12-.18-.28-.18-.44s.07-.32.18-.44c.12-.12.28-.18.44-.18h3.75c.17,0,.32.07.44.18.12.12.18.28.18.44s-.07.32-.18.44c-.12.12-.28.18-.44.18ZM0,5h20v23.75H0V5Zm0,27.5c0,.99.4,1.95,1.1,2.65.7.7,1.66,1.1,2.65,1.1h12.5c.99,0,1.95-.4,2.65-1.1.7-.7,1.1-1.66,1.1-2.65v-2.5H0v2.5Zm10-1.25c.37,0,.73.11,1.04.32.31.21.55.5.69.84.14.34.18.72.11,1.08-.07.36-.25.7-.51.96-.26.26-.6.44-.96.51-.36.07-.74.04-1.08-.11s-.64-.38-.84-.69c-.21-.31-.32-.67-.32-1.04,0-.5.2-.97.55-1.33s.83-.55,1.33-.55Z"/>
  </g>
</svg>