<?xml version="1.0" encoding="UTF-8"?>
<svg id="Layer_2" data-name="Layer 2" xmlns="http://www.w3.org/2000/svg" viewBox="0 0 17.88 17.92">
  <defs>
    <style>
      .cls-1 {
        stroke-width: 0px;
      }
    </style>
  </defs>
  <g id="Layer_1-2" data-name="Layer 1">
    <path class="cls-1" d="m13.5,17.92c-.94,0-1.93-.23-2.96-.66-1-.43-2.01-1.01-2.99-1.72-.97-.72-1.92-1.52-2.81-2.39-.88-.89-1.68-1.83-2.39-2.8-.72-1-1.29-2-1.7-2.97-.43-1.03-.65-2.03-.65-2.98,0-.65.12-1.27.34-1.84.23-.59.61-1.14,1.12-1.62.64-.63,1.38-.95,2.16-.95.33,0,.66.08.94.21.33.15.6.38.8.67l1.93,2.73c.18.24.31.47.4.71.11.25.17.5.17.74,0,.32-.09.62-.27.92-.12.22-.32.47-.56.71l-.57.59s.02.04.03.06c.1.18.3.47.68.93.41.47.79.89,1.18,1.28.49.48.9.87,1.28,1.18.47.4.78.6.97.69l-.02.04.61-.6c.26-.26.51-.45.75-.57.46-.28,1.04-.33,1.62-.09.22.09.45.22.7.39l2.77,1.97c.31.21.53.48.67.79.12.32.18.61.18.9,0,.4-.09.8-.27,1.18-.18.38-.39.7-.67,1-.48.52-.99.9-1.59,1.14-.57.23-1.2.36-1.86.36ZM3.62,1.25c-.46,0-.88.2-1.29.6-.38.36-.65.75-.82,1.17-.17.43-.26.89-.26,1.38,0,.78.18,1.62.55,2.48.38.88.9,1.8,1.57,2.72.67.92,1.43,1.81,2.26,2.65.83.82,1.73,1.59,2.66,2.27.9.66,1.83,1.19,2.74,1.58,1.43.61,2.76.75,3.86.29.43-.17.8-.44,1.14-.82.19-.21.34-.43.47-.7.1-.21.15-.42.15-.64,0-.13-.02-.27-.09-.42-.02-.05-.08-.14-.23-.25l-2.77-1.97c-.17-.12-.32-.2-.46-.26-.18-.07-.26-.15-.54.02-.17.08-.32.21-.48.38l-.63.62c-.33.32-.83.39-1.21.25l-.22-.1c-.34-.18-.74-.47-1.18-.84-.4-.34-.83-.74-1.36-1.26-.41-.42-.82-.86-1.24-1.35-.39-.46-.67-.85-.85-1.18l-.1-.25c-.05-.19-.07-.3-.07-.42,0-.3.11-.57.32-.78l.62-.65c.17-.17.29-.33.38-.47.07-.11.09-.2.09-.28,0-.07-.03-.17-.07-.27-.06-.13-.15-.28-.27-.44l-1.93-2.73c-.08-.12-.18-.2-.31-.26-.13-.06-.28-.09-.42-.09Zm6.97,10.22l-.13.57.23-.58s-.08,0-.09.02Z"/>
  </g>
</svg>