<svg width="61" height="47" viewBox="0 0 61 47" fill="none" xmlns="http://www.w3.org/2000/svg">
<path d="M33.3815 0.565918H60.375V23.777C60.375 27.6359 59.6829 30.8419 58.2986 33.3948C56.9733 35.8745 55.1349 38.0429 52.9059 39.7555C50.6571 41.4651 48.1703 42.8361 45.5246 43.8249C42.814 44.8498 40.133 45.7635 37.4814 46.5659L33.5054 39.3333C35.2739 38.6791 36.9952 37.9037 38.657 37.0125C39.9408 36.3336 41.1182 35.4699 42.1514 34.449C43.0373 33.5524 43.7165 32.4727 44.1414 31.2858C44.589 29.9353 44.8028 28.5183 44.7737 27.0958H33.3869L33.3815 0.565918ZM0 0.565918H26.9339V23.777C26.9339 27.6359 26.2417 30.8419 24.8575 33.3948C23.5369 35.8691 21.7091 38.0366 19.4936 39.7555C17.2583 41.4687 14.7811 42.8401 12.1431 43.8249C9.43344 44.8498 6.75239 45.7635 4.09993 46.5659L0.0622942 39.3333C1.83076 38.6791 3.55203 37.9037 5.21384 37.0125C6.49763 36.3332 7.67514 35.4695 8.70892 34.449C9.59372 33.5519 10.2722 32.4723 10.6969 31.2858C11.1445 29.9353 11.3583 28.5183 11.3292 27.0958H0V0.565918Z" fill="#307FE2"/>
</svg>
