<svg width="40" height="40" viewBox="0 0 40 40" fill="none" xmlns="http://www.w3.org/2000/svg">
  <!-- Background Rectangle -->
  <rect width="40" height="40" fill="#055AC1" /> <!-- bg-blue-600 color -->

  <!-- SVG Paths -->
  <path d="M13.4834 19.3834H5.66671C5.80004 11.6 7.33337 10.3167 12.1167 7.48337C12.6667 7.15003 12.85 6.45003 12.5167 5.88337C12.2 5.33337 11.4834 5.15003 10.9334 5.48337C5.30004 8.8167 3.33337 10.85 3.33337 20.5334V29.5167C3.33337 32.3667 5.65004 34.6667 8.48337 34.6667H13.4834C16.4167 34.6667 18.6334 32.45 18.6334 29.5167V24.5167C18.6334 21.6 16.4167 19.3834 13.4834 19.3834Z" fill="#055AC1"/>
  <path d="M31.5166 19.3834H23.7C23.8333 11.6 25.3666 10.3167 30.15 7.48337C30.7 7.15003 30.8833 6.45003 30.55 5.88337C30.2166 5.33337 29.5166 5.15003 28.95 5.48337C23.3166 8.8167 21.35 10.85 21.35 20.55V29.5334C21.35 32.3834 23.6666 34.6834 26.5 34.6834H31.5C34.4333 34.6834 36.65 32.4667 36.65 29.5334V24.5334C36.6666 21.6 34.45 19.3834 31.5166 19.3834Z" fill="#055AC1"/>
</svg>
