<svg width="34" height="36" viewBox="0 0 34 36" fill="none" xmlns="http://www.w3.org/2000/svg">

<path d="M33.4921 15.4095V15.3064C33.4921 13.8896 32.3762 12.762 31.035 12.762H28.9469C25.332 12.762 22.416 9.73876 22.416 6.05305V3.90326C22.416 3.22767 22.1501 2.5693 21.6931 2.10044L21.6918 2.09916C21.2234 1.61518 20.6078 1.35278 19.959 1.35278C18.6157 1.35278 17.496 2.48264 17.496 3.90326V9.15712C17.6426 13.9672 21.5497 17.8568 26.1957 17.8568H31.037C32.343 17.8568 33.4395 16.7821 33.4921 15.4095ZM33.4921 15.4095V15.8064H33.9543M33.4921 15.4095L33.9543 15.8064M33.9543 15.8064C33.7914 16.8216 33.1407 17.6687 32.2607 18.0831C31.8826 17.937 31.4724 17.8569 31.043 17.8569H31.037H26.2017C26.1997 17.8569 26.1977 17.8569 26.1957 17.8569C25.4617 17.8573 24.748 17.9393 24.0629 18.0946L33.9543 15.8064ZM17.496 9.3753L17.496 9.16466L17.2505 11.0936C17.3738 10.5368 17.4517 9.9625 17.48 9.3753H17.496ZM16.494 5.13712L16.496 5.13508V8.3753H16.4921V8.8753C16.4921 13.8423 12.575 17.8568 7.7924 17.8568H2.95704C1.61871 17.8568 0.5 16.726 0.5 15.3064C0.5 14.6188 0.757873 13.9803 1.2236 13.5009C1.69402 13.0165 2.30791 12.7559 2.95704 12.7559H5.04517C8.65969 12.7559 11.576 9.73511 11.576 6.05305V3.90326C11.576 2.48154 12.6927 1.35278 14.0331 1.35278C15.374 1.35278 16.494 2.48424 16.494 3.90326V5.13712ZM17.502 32.8084V28.3323H18.1852L17.502 27.6294V27.5561C17.6427 22.6577 21.4639 18.8569 26.2017 18.8569H31.043C32.3514 18.8569 33.4454 19.9301 33.498 21.2981V21.4012C33.498 22.0916 33.2397 22.7337 32.7747 23.2125C32.3087 23.6904 31.6949 23.9517 31.041 23.9517H28.9529C25.3379 23.9517 22.422 26.975 22.422 30.6607V32.8084C22.422 34.2259 21.3035 35.3528 19.959 35.3528C18.6161 35.3528 17.502 34.2254 17.502 32.8084ZM16.498 28.3323H16.5L16.5 32.8072C16.5 32.8075 16.5 32.8078 16.5 32.808C16.4962 34.2269 15.3764 35.3528 14.039 35.3528C13.3891 35.3528 12.7734 35.0915 12.3095 34.618C11.8409 34.1315 11.582 33.4886 11.582 32.8023V30.6607C11.582 26.975 8.66605 23.9517 5.05111 23.9517H2.96297C1.61807 23.9517 0.5 22.8203 0.5 21.4012C0.5 19.9838 1.61855 18.8569 2.96297 18.8569H7.79834C12.5813 18.8569 16.498 22.8697 16.498 27.8323V28.3323Z" stroke="#055AC1"/>
</svg>
