<?xml version="1.0" encoding="UTF-8"?>
<svg id="Layer_2" data-name="Layer 2" xmlns="http://www.w3.org/2000/svg" viewBox="0 0 17.92 15.42">
  <defs>
    <style>
      .cls-1 {
        stroke-width: 0px;
      }
    </style>
  </defs>
  <g id="Layer_1-2" data-name="Layer 1">
    <path class="cls-1" d="m13.12,0H4.79C1.75,0,0,1.75,0,4.79v5.83c0,3.04,1.75,4.79,4.79,4.79h8.33c3.04,0,4.79-1.75,4.79-4.79v-5.83c0-3.04-1.75-4.79-4.79-4.79Zm3.54,10.62c0,2.38-1.16,3.54-3.54,3.54H4.79c-2.38,0-3.54-1.16-3.54-3.54v-5.83c0-2.38,1.16-3.54,3.54-3.54h8.33c2.38,0,3.54,1.16,3.54,3.54v5.83Zm-3.06-5.81c.22.27.17.67-.1.88l-2.61,2.08c-.53.44-1.24.66-1.94.66s-1.41-.22-1.95-.66l-2.61-2.08c-.27-.22-.32-.61-.1-.88.22-.27.61-.32.88-.1l2.61,2.08c.63.51,1.71.51,2.34,0l2.61-2.08c.27-.22.67-.17.88.1Z"/>
  </g>
</svg>