<?xml version="1.0" encoding="UTF-8"?>
<svg id="Layer_2" data-name="Layer 2" xmlns="http://www.w3.org/2000/svg" viewBox="0 0 759.35 710.85">
  <defs>
    <style>
      .cls-1 {
        stroke-width: 0px;
      }
    </style>
  </defs>
  <g id="Flat">
    <path class="cls-1" d="m758.89,546.21c-1.94-12.28-9.87-22.77-21.15-27.99-4.34-2.09-79.77-39.83-120.31-150.45l51.12-20.45c19.23-7.69,28.58-29.52,20.89-48.75-7.69-19.23-29.52-28.58-48.75-20.89l-42.2,16.88c-4.34-27.14-6.47-54.58-6.37-82.06C592.12,95.14,496.98,0,379.62,0s-212.5,95.14-212.5,212.5c.09,27.48-2.04,54.92-6.38,82.06l-42.2-16.88c-19.23-7.69-41.05,1.66-48.74,20.89-7.69,19.23,1.66,41.05,20.89,48.74l51.12,20.45c-40.42,110.29-115.52,148.14-120.27,150.43-18.74,8.81-26.8,31.15-17.98,49.89,2.01,4.28,4.82,8.15,8.27,11.39,25.67,24.1,60.14,26.4,90.55,28.43,15.92,1.06,33.96,2.27,42.45,6.94,8.1,4.46,18.58,18.82,27.82,31.49,17.24,23.63,38.69,53.04,73.37,61.92,6.8,1.73,13.79,2.6,20.81,2.59,25.62,0,49.49-11.13,71.09-21.19,15.46-7.21,31.45-14.65,41.69-14.65s26.23,7.45,41.69,14.65c27.34,12.74,58.33,27.2,91.9,18.6,34.67-8.87,56.13-38.28,73.37-61.91,9.24-12.67,19.72-27.04,27.82-31.49,8.49-4.67,26.53-5.88,42.45-6.94,30.41-2.03,64.88-4.33,90.56-28.43,9.12-8.49,13.42-20.96,11.48-33.27Zm-180.66,2.93c-22.7,12.49-38.4,34.01-52.24,53-10.16,13.93-22.81,31.27-31.37,33.45-7.59,1.93-27.26-7.22-41.63-13.92-21.8-10.16-46.51-21.67-73.37-21.67s-51.57,11.51-73.37,21.67c-14.36,6.7-34.02,15.86-41.62,13.92-8.56-2.19-21.21-19.53-31.37-33.46-13.85-18.98-29.54-40.5-52.24-53-17.99-9.9-38.29-13.17-57.6-14.88,53.77-53.1,118.7-152.3,118.7-321.76,0-75.94,61.56-137.5,137.5-137.5s137.5,61.56,137.5,137.5c0,169.46,64.93,268.66,118.7,321.76-19.31,1.71-39.61,4.98-57.59,14.88h0Z"/>
  </g>
</svg>