<svg data-name="Layer 2" xmlns="http://www.w3.org/2000/svg" viewBox="0 0 40 39.92">
  <path 
    d="M20 4.74c1.04 0 2.05.31 2.92.88.86.58 1.54 1.39 1.93 2.35.4.96.5 2.01.3 3.03s-.7 1.95-1.44 2.68c-.73.73-1.67 1.23-2.69 1.43s-2.07.1-3.03-.3-1.78-1.07-2.36-1.93c-.58-.86-.88-1.87-.88-2.91 0-.69.14-1.37.4-2.01.26-.64.65-1.21 1.14-1.7.49-.49 1.07-.87 1.7-1.14.64-.26 1.32-.4 2.01-.4Zm0 22.45c7.42 0 15.25 3.64 15.25 5.24v2.74H4.75v-2.74c0-1.6 7.82-5.24 15.25-5.24ZM20 0c-1.98 0-3.91.59-5.56 1.68-1.64 1.1-2.93 2.65-3.68 4.48s-.95 3.83-.57 5.76 1.34 3.71 2.74 5.11a9.94 9.94 0 0 0 5.12 2.73 10.033 10.033 0 0 0 10.27-4.24A9.943 9.943 0 0 0 30 9.98 9.975 9.975 0 0 0 23.83.76 10.1 10.1 0 0 0 20 0Zm0 22.45c-6.67 0-20 3.35-20 9.98v7.49h40v-7.49c0-6.64-13.33-9.98-20-9.98Z" 
    style="fill:currentColor;stroke-width:0" 
    data-name="Layer 1"
  />
</svg>