<svg width="21" height="21" viewBox="0 0 21 21" fill="none" xmlns="http://www.w3.org/2000/svg">
<path d="M10.4986 3.22739C11.0178 3.22739 11.5253 3.38135 11.957 3.66981C12.3887 3.95826 12.7252 4.36825 12.9239 4.84794C13.1226 5.32762 13.1746 5.85545 13.0733 6.36468C12.972 6.87391 12.722 7.34167 12.3548 7.7088C11.9877 8.07593 11.5199 8.32596 11.0107 8.42725C10.5015 8.52854 9.97364 8.47655 9.49396 8.27786C9.01427 8.07917 8.60428 7.7427 8.31583 7.31099C8.02737 6.87929 7.87341 6.37174 7.87341 5.85254C7.87325 5.50776 7.94105 5.16632 8.07292 4.84775C8.20479 4.52918 8.39815 4.23973 8.64195 3.99593C8.88575 3.75213 9.1752 3.55877 9.49377 3.4269C9.81234 3.29503 10.1538 3.22723 10.4986 3.22739ZM10.4986 14.4753C14.2111 14.4753 18.1225 16.3004 18.1225 17.1004V18.4753H2.87461V17.1004C2.87461 16.3004 6.78598 14.4753 10.4986 14.4753ZM10.4986 0.852539C9.50989 0.852539 8.54342 1.14571 7.72137 1.69499C6.89932 2.24426 6.25862 3.02497 5.88027 3.93838C5.50192 4.85179 5.40293 5.85689 5.59581 6.82656C5.78869 7.79623 6.26478 8.68693 6.96387 9.38603C7.66297 10.0851 8.55367 10.5612 9.52334 10.7541C10.493 10.947 11.4981 10.848 12.4115 10.4696C13.3249 10.0913 14.1056 9.45058 14.6549 8.62853C15.2042 7.80648 15.4974 6.84001 15.4974 5.85134C15.4975 5.19484 15.3683 4.54475 15.1172 3.9382C14.866 3.33164 14.4978 2.78052 14.0336 2.3163C13.5694 1.85209 13.0183 1.48389 12.4117 1.23273C11.8051 0.981572 11.1551 0.852382 10.4986 0.852539ZM10.4986 12.1004C7.16203 12.1004 0.499756 13.7771 0.499756 17.0992V20.8525H20.4998V17.1004C20.4998 13.7759 13.8351 12.1004 10.4986 12.1004Z" fill="#435169"/>
</svg>
