<svg width="169" height="56" fill="none" xmlns="http://www.w3.org/2000/svg"><g clip-path="url(#a)"><path d="M169 23.205c0 2.638-2.119 4.78-4.719 4.78h-7.727c-7.873 0-14.443-6.46-14.684-14.404V5.336c0-2.638 2.123-4.78 4.73-4.78 1.257 0 2.445.5 3.339 1.408a4.817 4.817 0 0 1 1.38 3.372v3.369c0 5.364 4.319 9.73 9.626 9.73h3.333c2.603 0 4.719 2.14 4.719 4.77H169ZM141.867 42.873v7.8c-.006 2.635-2.129 4.771-4.726 4.771a4.684 4.684 0 0 1-3.332-1.389 4.811 4.811 0 0 1-1.387-3.39v-3.357c0-5.365-4.319-9.73-9.626-9.73h-3.333c-2.609 0-4.729-2.146-4.729-4.78 0-2.635 2.123-4.77 4.729-4.77h7.718c8.097 0 14.683 6.66 14.683 14.848h.006l-.003-.003Z" fill="#055AC1" opacity=".6"/><path d="M169.001 32.795c0 1.28-.49 2.484-1.381 3.384a4.675 4.675 0 0 1-3.339 1.396h-3.333c-5.307 0-9.625 4.365-9.625 9.73v3.365c0 2.635-2.123 4.771-4.73 4.771-2.606 0-4.719-2.14-4.719-4.77v-8.242c.23-8.086 6.665-14.405 14.683-14.405h7.727c2.603 0 4.72 2.14 4.72 4.77h-.003ZM141.867 5.336v7.795h-.006c0 8.194-6.587 14.858-14.683 14.858h-7.718c-2.6 0-4.719-2.146-4.719-4.78 0-1.278.489-2.475 1.38-3.376a4.667 4.667 0 0 1 3.339-1.405h3.333c5.307 0 9.626-4.362 9.626-9.72V5.339c0-2.638 2.116-4.78 4.719-4.78s4.726 2.146 4.726 4.78l.003-.003Z" fill="#055AC1"/><path d="M1.817 12.252c1.194-1.207 2.635-1.81 4.318-1.81h5.94v7.143c0 .578.126 1.035.379 1.364.252.332.625.495 1.115.495h.786v3.397h-.786c-1.57 0-2.692-.635-3.362-1.91-.998 1.275-2.356 1.91-4.075 1.91-1.718 0-3.15-.6-4.343-1.797-1.195-1.198-1.792-2.657-1.792-4.378 0-1.722.607-3.19 1.817-4.417l.003.003Zm.638-4.764c0-.51.18-.951.54-1.315.36-.365.793-.547 1.302-.547.508 0 .941.182 1.301.547.36.364.54.801.54 1.315 0 .514-.18.952-.54 1.316-.36.364-.793.546-1.301.546-.509 0-.942-.182-1.302-.546a1.801 1.801 0 0 1-.54-1.316Zm1.719 11.138c.54.546 1.194.818 1.961.818.72 0 1.327-.262 1.817-.783.49-.52.736-1.194.736-2.021v-2.804H6.135c-.767 0-1.421.275-1.961.818a2.715 2.715 0 0 0-.809 1.983c0 .776.268 1.44.809 1.983v.006ZM7.02 7.488c0-.51.177-.951.528-1.315a1.72 1.72 0 0 1 1.288-.547c.51 0 .942.182 1.302.547.36.364.54.801.54 1.315 0 .514-.18.952-.54 1.316-.36.364-.793.546-1.302.546-.508 0-.935-.182-1.288-.546a1.828 1.828 0 0 1-.528-1.316Z" fill="#45545E"/><path d="M19.722 22.845h-5.857v-3.398h5.857v3.398Z" fill="#45545E"/><path d="M19.233 22.845v-3.398H35.46c-1.014-.894-1.523-2.034-1.523-3.423 0-1.52.556-2.833 1.668-3.931 1.112-1.099 2.502-1.651 4.173-1.651 1.766 0 3.232.616 4.391 1.849 1.163 1.232 1.744 2.781 1.744 4.652v5.905H19.233v-.003Zm17.772-6.202c0 .776.269 1.44.81 1.983.54.546 1.193.818 1.964.818h2.748V16.64c0-.776-.265-1.44-.799-1.983-.53-.546-1.181-.818-1.952-.818a2.67 2.67 0 0 0-1.965.818 2.715 2.715 0 0 0-.809 1.983l.003.003ZM38.38 6.026c.36-.38.802-.572 1.326-.572.525 0 .973.192 1.35.572.375.38.565.836.565 1.363s-.19.984-.566 1.364c-.46.466-1.036.648-1.718.54a1.567 1.567 0 0 1-.724-.323c-.53-.422-.796-.949-.796-1.584 0-.53.19-.984.566-1.364l-.003.004ZM48.612 3.497h3.361v14.088c0 .578.13 1.035.392 1.364.262.332.628.495 1.105.495h.613v3.397h-.613c-1.44 0-2.609-.492-3.51-1.475-.9-.983-1.348-2.245-1.348-3.784V3.497Z" fill="#45545E"/><path d="M78.244 22.845h-24.65v-3.398h24.65v3.398Z" fill="#45545E"/><path d="M77.754 19.447h2.209v-9.005h3.36v2.851c1.947-1.9 3.928-2.851 5.94-2.851 1.766 0 3.21.603 4.33 1.81 1.122 1.207 1.681 2.753 1.681 4.64v.719c0 1.638-.432 2.918-1.301 3.844-.866.926-2.07 1.39-3.608 1.39H77.751v-3.398h.003Zm12.614 0c1.03 0 1.545-.613 1.545-1.836v-.719c0-.926-.271-1.667-.808-2.22-.54-.555-1.286-.83-2.234-.83-1.636 0-3.484 1.118-5.547 3.35v2.258h7.044v-.003ZM86.344 6.026a1.83 1.83 0 0 1 1.349-.572c.524 0 .973.192 1.349.572.376.38.565.836.565 1.363s-.19.984-.565 1.364c-.376.38-.825.571-1.35.571a1.83 1.83 0 0 1-1.348-.571 1.87 1.87 0 0 1-.566-1.364c0-.53.187-.983.566-1.363ZM97.213 26.69h1.008a1.648 1.648 0 0 1-.392-1.093c0-.562.2-1.028.6-1.402.402-.373.895-.559 1.486-.559.669 0 1.241.265 1.718.796l-1.03.795a.817.817 0 0 0-.663-.297.837.837 0 0 0-.6.249.834.834 0 0 0-.26.62c0 .245.086.46.26.631a.83.83 0 0 0 .6.262h1.914v1.316h-4.637v-1.316l-.004-.003Zm3.978-23.193v19.348h-3.362V3.497h3.362Z" fill="#45545E"/><path d="M6.866 48.46H4.333V33.903h2.533V48.46ZM22.779 38.987c1.023-1.103 2.26-1.655 3.71-1.655.797 0 1.535.206 2.213.618.691.4 1.197.911 1.516 1.536v-6.581h2.373V48.46h-2.174l-.14-2.055c-.332.639-.844 1.164-1.535 1.576a4.322 4.322 0 0 1-2.254.618c-1.449 0-2.692-.552-3.73-1.655-1.023-1.104-1.535-2.427-1.535-3.969 0-1.556.519-2.885 1.556-3.989Zm1.815 6.302c.638.652 1.409.978 2.313.978.917 0 1.695-.32 2.333-.958.652-.651.978-1.429.978-2.333 0-.917-.326-1.695-.978-2.333a3.143 3.143 0 0 0-2.333-.978c-.904 0-1.675.326-2.313.978-.639.638-.958 1.416-.958 2.333 0 .904.32 1.675.958 2.313ZM48.295 38.987c1.024-1.103 2.26-1.655 3.71-1.655a4.22 4.22 0 0 1 2.254.638c.691.412 1.203.944 1.535 1.596l.14-2.075h2.174v10.97h-2.174l-.14-2.055c-.332.639-.844 1.164-1.535 1.576a4.322 4.322 0 0 1-2.254.618c-1.45 0-2.692-.552-3.73-1.655-1.023-1.104-1.535-2.427-1.535-3.969 0-1.556.518-2.885 1.555-3.989Zm1.815 6.302c.639.652 1.41.978 2.314.978.917 0 1.695-.32 2.333-.958.652-.651.977-1.429.977-2.333 0-.917-.325-1.695-.977-2.333a3.143 3.143 0 0 0-2.333-.978c-.904 0-1.675.326-2.314.978-.638.638-.957 1.416-.957 2.333 0 .904.32 1.675.957 2.313ZM71.958 37.492h1.396v-.34c0-1.568.372-2.718 1.117-3.45.757-.744 1.735-1.117 2.931-1.117.572 0 1.124.093 1.656.28l-.619 2.114c-.425-.067-.691-.1-.797-.1-.625 0-1.104.18-1.436.538-.32.346-.48.925-.48 1.736v.339h2.713v2.114h-2.712v8.855l-2.373-.02v-8.836h-1.396v-2.113ZM92.607 32.904h2.373v6.303c.32-.559.751-1.01 1.297-1.357.558-.345 1.196-.518 1.914-.518 1.33 0 2.393.465 3.191 1.396.798.93 1.197 2.313 1.197 4.148v5.585h-2.374v-5.585c0-1.063-.245-1.861-.737-2.393-.492-.545-1.117-.818-1.875-.818s-1.383.273-1.875.818c-.492.532-.738 1.33-.738 2.393v5.585h-2.373V32.905Z" fill="#8EA0AC"/></g><defs><clipPath id="a"><path fill="#fff" transform="translate(0 .556)" d="M0 0h169v54.889H0z"/></clipPath></defs></svg>